<svg width="400" height="400" viewBox="0 0 400 400" fill="none" xmlns="http://www.w3.org/2000/svg">
  <!-- AgriLease Logo - Vector Representation -->
  <!-- Leaves -->
  <path d="M200 280C200 280 140 220 140 140C140 60 200 40 200 40C200 40 260 60 260 140C260 220 200 280 200 280Z" fill="#386641"/>
  <path d="M200 280C200 280 140 220 80 240C20 260 10 180 10 180C10 180 40 140 120 140C200 140 200 280 200 280Z" fill="#6A994E"/>
  <path d="M200 280C200 280 260 220 320 240C380 260 390 180 390 180C390 180 360 140 280 140C200 140 200 280 200 280Z" fill="#6A994E"/>
  
  <!-- Veins / Inner Details (Circles) -->
  <circle cx="200" cy="120" r="10" fill="white" opacity="0.9"/>
  <circle cx="100" cy="210" r="8" fill="white" opacity="0.9"/>
  <circle cx="300" cy="210" r="8" fill="white" opacity="0.9"/>
  
  <!-- Connectors -->
  <path d="M200 280C200 280 200 200 200 130" stroke="white" stroke-width="3" stroke-linecap="round"/>
  <path d="M200 280C200 280 150 250 108 218" stroke="white" stroke-width="2.5" stroke-linecap="round"/>
  <path d="M200 280C200 280 250 250 292 218" stroke="white" stroke-width="2.5" stroke-linecap="round"/>

  <!-- Water/Field Waves -->
  <path d="M100 320C150 300 250 340 300 320" stroke="#386641" stroke-width="8" stroke-linecap="round"/>
  <path d="M100 350C150 330 250 370 300 350" stroke="#386641" stroke-width="8" stroke-linecap="round"/>
</svg>
